<?xml version="1.0" encoding="UTF-8" standalone="no"?>
<!DOCTYPE svg PUBLIC "-//W3C//DTD SVG 1.1//EN" "http://www.w3.org/Graphics/SVG/1.1/DTD/svg11.dtd">
<!-- Generated by graphviz version 2.43.0 (0)
 -->
<!-- Title: unix Pages: 1 -->
<svg xmlns="http://www.w3.org/2000/svg" xmlns:xlink="http://www.w3.org/1999/xlink" width="422pt" height="241pt" viewBox="0.00 0.00 422.00 240.87">
  <g id="graph0" class="graph" transform="scale(1 1) rotate(0) translate(4 236.87)">
    <title>unix</title>
    <polygon fill="white" stroke="transparent" points="-4,4 -4,-236.87 418,-236.87 418,4 -4,4"/>
    <!-- A -->
    <g id="node1" class="node">
      <title>A</title>
      <ellipse fill="white" stroke="#b2dfee" cx="27" cy="-116.57" rx="27" ry="18"/>
      <text text-anchor="middle" x="27" y="-112.87" font-family="Helvetica,Arial,sans-serif" font-size="14.00">A</text>
    </g>
    <!-- B -->
    <g id="node2" class="node">
      <title>B</title>
      <ellipse fill="white" stroke="#b2dfee" cx="117" cy="-116.57" rx="27" ry="18"/>
      <text text-anchor="middle" x="117" y="-112.87" font-family="Helvetica,Arial,sans-serif" font-size="14.00">B</text>
    </g>
    <!-- A&#45;&gt;B -->
    <g id="edge1" class="edge">
      <title>A-&gt;B</title>
      <path fill="none" stroke="black" d="M54.4,-116.57C62.39,-116.57 71.31,-116.57 79.82,-116.57"/>
      <polygon fill="black" stroke="black" points="79.92,-120.08 89.92,-116.57 79.92,-113.08 79.92,-120.08"/>
    </g>
    <!-- E -->
    <g id="node3" class="node">
      <title>E</title>
      <ellipse fill="white" stroke="#b2dfee" cx="207" cy="-116.57" rx="27" ry="18"/>
      <text text-anchor="middle" x="207" y="-112.87" font-family="Helvetica,Arial,sans-serif" font-size="14.00">E</text>
    </g>
    <!-- B&#45;&gt;E -->
    <g id="edge2" class="edge">
      <title>B-&gt;E</title>
      <path fill="none" stroke="black" d="M144.4,-116.57C152.39,-116.57 161.31,-116.57 169.82,-116.57"/>
      <polygon fill="black" stroke="black" points="169.92,-120.08 179.92,-116.57 169.92,-113.08 169.92,-120.08"/>
    </g>
    <!-- K -->
    <g id="node4" class="node">
      <title>K</title>
      <ellipse fill="red" stroke="#b2dfee" cx="297" cy="-116.57" rx="27" ry="18"/>
      <text text-anchor="middle" x="297" y="-112.87" font-family="Helvetica,Arial,sans-serif" font-size="14.00">K</text>
    </g>
    <!-- E&#45;&gt;K -->
    <g id="edge3" class="edge">
      <title>E-&gt;K</title>
      <path fill="none" stroke="black" d="M234.4,-116.57C242.39,-116.57 251.31,-116.57 259.82,-116.57"/>
      <polygon fill="black" stroke="black" points="259.92,-120.08 269.92,-116.57 259.92,-113.08 259.92,-120.08"/>
    </g>
    <!-- V -->
    <g id="node5" class="node">
      <title>V</title>
      <ellipse fill="red" stroke="#b2dfee" cx="387" cy="-186.57" rx="27" ry="18"/>
      <text text-anchor="middle" x="387" y="-182.88" font-family="Helvetica,Arial,sans-serif" font-size="14.00">V</text>
    </g>
    <!-- K&#45;&gt;V -->
    <g id="edge4" class="edge">
      <title>K-&gt;V</title>
      <path fill="none" stroke="black" d="M314.97,-130.07C327.91,-140.37 345.95,-154.72 360.61,-166.38"/>
      <polygon fill="black" stroke="black" points="358.78,-169.39 368.78,-172.88 363.14,-163.92 358.78,-169.39"/>
    </g>
    <!-- W -->
    <g id="node6" class="node">
      <title>W</title>
      <ellipse fill="#b2dfee" stroke="#b2dfee" cx="387" cy="-46.57" rx="27" ry="18"/>
      <text text-anchor="middle" x="387" y="-42.87" font-family="Helvetica,Arial,sans-serif" font-size="14.00">W</text>
    </g>
    <!-- K&#45;&gt;W -->
    <g id="edge5" class="edge">
      <title>K-&gt;W</title>
      <path fill="none" stroke="black" d="M314.97,-103.08C327.91,-92.78 345.95,-78.43 360.61,-66.77"/>
      <polygon fill="black" stroke="black" points="363.14,-69.23 368.78,-60.27 358.78,-63.76 363.14,-69.23"/>
    </g>
  </g>
</svg>
