<?xml version="1.0" encoding="UTF-8" standalone="no"?>
<!DOCTYPE svg PUBLIC "-//W3C//DTD SVG 1.1//EN" "http://www.w3.org/Graphics/SVG/1.1/DTD/svg11.dtd">
<!-- Generated by graphviz version 2.43.0 (0)
 -->
<!-- Title: unix Pages: 1 -->
<svg xmlns="http://www.w3.org/2000/svg" xmlns:xlink="http://www.w3.org/1999/xlink" width="3048pt" height="1718pt" viewBox="0.00 0.00 3048.00 1718.00">
  <g id="graph0" class="graph" transform="scale(1 1) rotate(0) translate(4 1714)">
    <title>unix</title>
    <polygon fill="white" stroke="transparent" points="-4,4 -4,-1714 3044,-1714 3044,4 -4,4"/>
    <!-- A -->
    <g id="node1" class="node">
      <title>A</title>
      <ellipse fill="red" stroke="#b2dfee" cx="163" cy="-869" rx="27" ry="18"/>
      <text text-anchor="middle" x="163" y="-865.3" font-family="Helvetica,Arial,sans-serif" font-size="14.00">A</text>
    </g>
    <!-- B -->
    <g id="node2" class="node">
      <title>B</title>
      <ellipse fill="red" stroke="#b2dfee" cx="706" cy="-1071" rx="27" ry="18"/>
      <text text-anchor="middle" x="706" y="-1067.3" font-family="Helvetica,Arial,sans-serif" font-size="14.00">B</text>
    </g>
    <!-- A&#45;&gt;B -->
    <g id="edge1" class="edge">
      <title>A-&gt;B</title>
      <path fill="none" stroke="black" d="M186.9,-877.55C272.36,-909.46 572.8,-1021.64 672.54,-1058.88"/>
      <polygon fill="black" stroke="black" points="671.5,-1062.23 682.09,-1062.45 673.95,-1055.67 671.5,-1062.23"/>
    </g>
    <!-- C -->
    <g id="node3" class="node">
      <title>C</title>
      <ellipse fill="#b2dfee" stroke="#b2dfee" cx="706" cy="-626" rx="27" ry="18"/>
      <text text-anchor="middle" x="706" y="-622.3" font-family="Helvetica,Arial,sans-serif" font-size="14.00">C</text>
    </g>
    <!-- A&#45;&gt;C -->
    <g id="edge2" class="edge">
      <title>A-&gt;C</title>
      <path fill="none" stroke="black" d="M185.88,-859.17C270.34,-821.23 575.36,-684.23 674,-639.93"/>
      <polygon fill="black" stroke="black" points="675.46,-643.11 683.15,-635.82 672.59,-636.72 675.46,-643.11"/>
    </g>
    <!-- D -->
    <g id="node4" class="node">
      <title>D</title>
      <ellipse fill="#b2dfee" stroke="#b2dfee" cx="1249" cy="-1395" rx="27" ry="18"/>
      <text text-anchor="middle" x="1249" y="-1391.3" font-family="Helvetica,Arial,sans-serif" font-size="14.00">D</text>
    </g>
    <!-- B&#45;&gt;D -->
    <g id="edge3" class="edge">
      <title>B-&gt;D</title>
      <path fill="none" stroke="black" d="M726.57,-1082.72C808.42,-1131.74 1123.45,-1320.41 1219.82,-1378.13"/>
      <polygon fill="black" stroke="black" points="1218.07,-1381.16 1228.45,-1383.29 1221.67,-1375.15 1218.07,-1381.16"/>
    </g>
    <!-- E -->
    <g id="node5" class="node">
      <title>E</title>
      <ellipse fill="red" stroke="#b2dfee" cx="1249" cy="-1071" rx="27" ry="18"/>
      <text text-anchor="middle" x="1249" y="-1067.3" font-family="Helvetica,Arial,sans-serif" font-size="14.00">E</text>
    </g>
    <!-- B&#45;&gt;E -->
    <g id="edge4" class="edge">
      <title>B-&gt;E</title>
      <path fill="none" stroke="black" d="M733.09,-1071C821.46,-1071 1109.62,-1071 1211.73,-1071"/>
      <polygon fill="black" stroke="black" points="1211.85,-1074.5 1221.85,-1071 1211.85,-1067.5 1211.85,-1074.5"/>
    </g>
    <!-- F -->
    <g id="node6" class="node">
      <title>F</title>
      <ellipse fill="#b2dfee" stroke="#b2dfee" cx="1249" cy="-626" rx="27" ry="18"/>
      <text text-anchor="middle" x="1249" y="-622.3" font-family="Helvetica,Arial,sans-serif" font-size="14.00">F</text>
    </g>
    <!-- C&#45;&gt;F -->
    <g id="edge5" class="edge">
      <title>C-&gt;F</title>
      <path fill="none" stroke="black" d="M733.09,-626C821.46,-626 1109.62,-626 1211.73,-626"/>
      <polygon fill="black" stroke="black" points="1211.85,-629.5 1221.85,-626 1211.85,-622.5 1211.85,-629.5"/>
    </g>
    <!-- G -->
    <g id="node7" class="node">
      <title>G</title>
      <ellipse fill="#b2dfee" stroke="#b2dfee" cx="1249" cy="-315" rx="27" ry="18"/>
      <text text-anchor="middle" x="1249" y="-311.3" font-family="Helvetica,Arial,sans-serif" font-size="14.00">G</text>
    </g>
    <!-- C&#45;&gt;G -->
    <g id="edge6" class="edge">
      <title>C-&gt;G</title>
      <path fill="none" stroke="black" d="M726.9,-614.56C809.08,-567.32 1122.29,-387.26 1219.23,-331.54"/>
      <polygon fill="black" stroke="black" points="1221,-334.56 1227.92,-326.54 1217.51,-328.49 1221,-334.56"/>
    </g>
    <!-- H -->
    <g id="node8" class="node">
      <title>H</title>
      <ellipse fill="#b2dfee" stroke="#b2dfee" cx="1791" cy="-1557" rx="27" ry="18"/>
      <text text-anchor="middle" x="1791" y="-1553.3" font-family="Helvetica,Arial,sans-serif" font-size="14.00">H</text>
    </g>
    <!-- D&#45;&gt;H -->
    <g id="edge7" class="edge">
      <title>D-&gt;H</title>
      <path fill="none" stroke="black" d="M1273.9,-1402.17C1360.23,-1428.07 1656.15,-1516.84 1756.45,-1546.93"/>
      <polygon fill="black" stroke="black" points="1755.49,-1550.3 1766.07,-1549.82 1757.5,-1543.6 1755.49,-1550.3"/>
    </g>
    <!-- I -->
    <g id="node9" class="node">
      <title>I</title>
      <ellipse fill="#b2dfee" stroke="#b2dfee" cx="1791" cy="-1395" rx="27" ry="18"/>
      <text text-anchor="middle" x="1791" y="-1391.3" font-family="Helvetica,Arial,sans-serif" font-size="14.00">I</text>
    </g>
    <!-- D&#45;&gt;I -->
    <g id="edge8" class="edge">
      <title>D-&gt;I</title>
      <path fill="none" stroke="black" d="M1276.05,-1395C1364.25,-1395 1651.88,-1395 1753.8,-1395"/>
      <polygon fill="black" stroke="black" points="1753.9,-1398.5 1763.9,-1395 1753.9,-1391.5 1753.9,-1398.5"/>
    </g>
    <!-- J -->
    <g id="node10" class="node">
      <title>J</title>
      <ellipse fill="#b2dfee" stroke="#b2dfee" cx="1791" cy="-1125" rx="27" ry="18"/>
      <text text-anchor="middle" x="1791" y="-1121.3" font-family="Helvetica,Arial,sans-serif" font-size="14.00">J</text>
    </g>
    <!-- E&#45;&gt;J -->
    <g id="edge9" class="edge">
      <title>E-&gt;J</title>
      <path fill="none" stroke="black" d="M1276.05,-1073.6C1364.35,-1082.44 1652.54,-1111.25 1754.15,-1121.41"/>
      <polygon fill="black" stroke="black" points="1753.92,-1124.91 1764.22,-1122.42 1754.61,-1117.94 1753.92,-1124.91"/>
    </g>
    <!-- K -->
    <g id="node11" class="node">
      <title>K</title>
      <ellipse fill="red" stroke="#b2dfee" cx="1791" cy="-1017" rx="27" ry="18"/>
      <text text-anchor="middle" x="1791" y="-1013.3" font-family="Helvetica,Arial,sans-serif" font-size="14.00">K</text>
    </g>
    <!-- E&#45;&gt;K -->
    <g id="edge10" class="edge">
      <title>E-&gt;K</title>
      <path fill="none" stroke="black" d="M1276.05,-1068.4C1364.35,-1059.56 1652.54,-1030.75 1754.15,-1020.59"/>
      <polygon fill="black" stroke="black" points="1754.61,-1024.06 1764.22,-1019.58 1753.92,-1017.09 1754.61,-1024.06"/>
    </g>
    <!-- L -->
    <g id="node12" class="node">
      <title>L</title>
      <ellipse fill="#b2dfee" stroke="#b2dfee" cx="1791" cy="-680" rx="27" ry="18"/>
      <text text-anchor="middle" x="1791" y="-676.3" font-family="Helvetica,Arial,sans-serif" font-size="14.00">L</text>
    </g>
    <!-- F&#45;&gt;L -->
    <g id="edge11" class="edge">
      <title>F-&gt;L</title>
      <path fill="none" stroke="black" d="M1276.05,-628.6C1364.35,-637.44 1652.54,-666.25 1754.15,-676.41"/>
      <polygon fill="black" stroke="black" points="1753.92,-679.91 1764.22,-677.42 1754.61,-672.94 1753.92,-679.91"/>
    </g>
    <!-- M -->
    <g id="node13" class="node">
      <title>M</title>
      <ellipse fill="#b2dfee" stroke="#b2dfee" cx="1791" cy="-599" rx="27" ry="18"/>
      <text text-anchor="middle" x="1791" y="-595.3" font-family="Helvetica,Arial,sans-serif" font-size="14.00">M</text>
    </g>
    <!-- F&#45;&gt;M -->
    <g id="edge12" class="edge">
      <title>F-&gt;M</title>
      <path fill="none" stroke="black" d="M1276.05,-624.7C1364.25,-620.29 1651.88,-605.91 1753.8,-600.81"/>
      <polygon fill="black" stroke="black" points="1754.09,-604.3 1763.9,-600.3 1753.74,-597.31 1754.09,-604.3"/>
    </g>
    <!-- N -->
    <g id="node14" class="node">
      <title>N</title>
      <ellipse fill="#b2dfee" stroke="#b2dfee" cx="1791" cy="-315" rx="27" ry="18"/>
      <text text-anchor="middle" x="1791" y="-311.3" font-family="Helvetica,Arial,sans-serif" font-size="14.00">N</text>
    </g>
    <!-- G&#45;&gt;N -->
    <g id="edge13" class="edge">
      <title>G-&gt;N</title>
      <path fill="none" stroke="black" d="M1276.05,-315C1364.25,-315 1651.88,-315 1753.8,-315"/>
      <polygon fill="black" stroke="black" points="1753.9,-318.5 1763.9,-315 1753.9,-311.5 1753.9,-318.5"/>
    </g>
    <!-- O -->
    <g id="node15" class="node">
      <title>O</title>
      <ellipse fill="#b2dfee" stroke="#b2dfee" cx="1791" cy="-153" rx="27" ry="18"/>
      <text text-anchor="middle" x="1791" y="-149.3" font-family="Helvetica,Arial,sans-serif" font-size="14.00">O</text>
    </g>
    <!-- G&#45;&gt;O -->
    <g id="edge14" class="edge">
      <title>G-&gt;O</title>
      <path fill="none" stroke="black" d="M1273.9,-307.83C1360.23,-281.93 1656.15,-193.16 1756.45,-163.07"/>
      <polygon fill="black" stroke="black" points="1757.5,-166.4 1766.07,-160.18 1755.49,-159.7 1757.5,-166.4"/>
    </g>
    <!-- P -->
    <g id="node16" class="node">
      <title>P</title>
      <ellipse fill="#b2dfee" stroke="#b2dfee" cx="2334" cy="-1638" rx="27" ry="18"/>
      <text text-anchor="middle" x="2334" y="-1634.3" font-family="Helvetica,Arial,sans-serif" font-size="14.00">P</text>
    </g>
    <!-- H&#45;&gt;P -->
    <g id="edge15" class="edge">
      <title>H-&gt;P</title>
      <path fill="none" stroke="black" d="M1817.73,-1560.85C1905.85,-1574.05 2195.67,-1617.44 2297.36,-1632.66"/>
      <polygon fill="black" stroke="black" points="2297.02,-1636.15 2307.43,-1634.17 2298.06,-1629.23 2297.02,-1636.15"/>
    </g>
    <!-- Q -->
    <g id="node17" class="node">
      <title>Q</title>
      <ellipse fill="#b2dfee" stroke="#b2dfee" cx="2334" cy="-1557" rx="27" ry="18"/>
      <text text-anchor="middle" x="2334" y="-1553.3" font-family="Helvetica,Arial,sans-serif" font-size="14.00">Q</text>
    </g>
    <!-- H&#45;&gt;Q -->
    <g id="edge16" class="edge">
      <title>H-&gt;Q</title>
      <path fill="none" stroke="black" d="M1818.09,-1557C1906.46,-1557 2194.62,-1557 2296.73,-1557"/>
      <polygon fill="black" stroke="black" points="2296.85,-1560.5 2306.85,-1557 2296.85,-1553.5 2296.85,-1560.5"/>
    </g>
    <!-- R -->
    <g id="node18" class="node">
      <title>R</title>
      <ellipse fill="#b2dfee" stroke="#b2dfee" cx="2334" cy="-1422" rx="27" ry="18"/>
      <text text-anchor="middle" x="2334" y="-1418.3" font-family="Helvetica,Arial,sans-serif" font-size="14.00">R</text>
    </g>
    <!-- I&#45;&gt;R -->
    <g id="edge17" class="edge">
      <title>I-&gt;R</title>
      <path fill="none" stroke="black" d="M1818.09,-1396.3C1906.46,-1400.71 2194.62,-1415.09 2296.73,-1420.19"/>
      <polygon fill="black" stroke="black" points="2296.69,-1423.69 2306.85,-1420.7 2297.04,-1416.7 2296.69,-1423.69"/>
    </g>
    <!-- S -->
    <g id="node19" class="node">
      <title>S</title>
      <ellipse fill="#b2dfee" stroke="#b2dfee" cx="2334" cy="-1368" rx="27" ry="18"/>
      <text text-anchor="middle" x="2334" y="-1364.3" font-family="Helvetica,Arial,sans-serif" font-size="14.00">S</text>
    </g>
    <!-- I&#45;&gt;S -->
    <g id="edge18" class="edge">
      <title>I-&gt;S</title>
      <path fill="none" stroke="black" d="M1818.09,-1393.7C1906.46,-1389.29 2194.62,-1374.91 2296.73,-1369.81"/>
      <polygon fill="black" stroke="black" points="2297.04,-1373.3 2306.85,-1369.3 2296.69,-1366.31 2297.04,-1373.3"/>
    </g>
    <!-- T -->
    <g id="node20" class="node">
      <title>T</title>
      <ellipse fill="#b2dfee" stroke="#b2dfee" cx="2334" cy="-1206" rx="27" ry="18"/>
      <text text-anchor="middle" x="2334" y="-1202.3" font-family="Helvetica,Arial,sans-serif" font-size="14.00">T</text>
    </g>
    <!-- J&#45;&gt;T -->
    <g id="edge19" class="edge">
      <title>J-&gt;T</title>
      <path fill="none" stroke="black" d="M1817.73,-1128.85C1905.85,-1142.05 2195.67,-1185.44 2297.36,-1200.66"/>
      <polygon fill="black" stroke="black" points="2297.02,-1204.15 2307.43,-1202.17 2298.06,-1197.23 2297.02,-1204.15"/>
    </g>
    <!-- U -->
    <g id="node21" class="node">
      <title>U</title>
      <ellipse fill="#b2dfee" stroke="#b2dfee" cx="2334" cy="-1125" rx="27" ry="18"/>
      <text text-anchor="middle" x="2334" y="-1121.3" font-family="Helvetica,Arial,sans-serif" font-size="14.00">U</text>
    </g>
    <!-- J&#45;&gt;U -->
    <g id="edge20" class="edge">
      <title>J-&gt;U</title>
      <path fill="none" stroke="black" d="M1818.09,-1125C1906.46,-1125 2194.62,-1125 2296.73,-1125"/>
      <polygon fill="black" stroke="black" points="2296.85,-1128.5 2306.85,-1125 2296.85,-1121.5 2296.85,-1128.5"/>
    </g>
    <!-- V -->
    <g id="node22" class="node">
      <title>V</title>
      <ellipse fill="red" stroke="#b2dfee" cx="2334" cy="-1017" rx="27" ry="18"/>
      <text text-anchor="middle" x="2334" y="-1013.3" font-family="Helvetica,Arial,sans-serif" font-size="14.00">V</text>
    </g>
    <!-- K&#45;&gt;V -->
    <g id="edge21" class="edge">
      <title>K-&gt;V</title>
      <path fill="none" stroke="black" d="M1818.09,-1017C1906.46,-1017 2194.62,-1017 2296.73,-1017"/>
      <polygon fill="black" stroke="black" points="2296.85,-1020.5 2306.85,-1017 2296.85,-1013.5 2296.85,-1020.5"/>
    </g>
    <!-- W -->
    <g id="node23" class="node">
      <title>W</title>
      <ellipse fill="#b2dfee" stroke="#b2dfee" cx="2334" cy="-936" rx="27" ry="18"/>
      <text text-anchor="middle" x="2334" y="-932.3" font-family="Helvetica,Arial,sans-serif" font-size="14.00">W</text>
    </g>
    <!-- K&#45;&gt;W -->
    <g id="edge22" class="edge">
      <title>K-&gt;W</title>
      <path fill="none" stroke="black" d="M1817.73,-1013.15C1905.85,-999.95 2195.67,-956.56 2297.36,-941.34"/>
      <polygon fill="black" stroke="black" points="2298.06,-944.77 2307.43,-939.83 2297.02,-937.85 2298.06,-944.77"/>
    </g>
    <!-- X -->
    <g id="node24" class="node">
      <title>X</title>
      <ellipse fill="#b2dfee" stroke="#b2dfee" cx="2334" cy="-774" rx="27" ry="18"/>
      <text text-anchor="middle" x="2334" y="-770.3" font-family="Helvetica,Arial,sans-serif" font-size="14.00">X</text>
    </g>
    <!-- L&#45;&gt;X -->
    <g id="edge23" class="edge">
      <title>L-&gt;X</title>
      <path fill="none" stroke="black" d="M1817.37,-684.41C1905.13,-699.66 2196.06,-750.21 2297.63,-767.85"/>
      <polygon fill="black" stroke="black" points="2297.24,-771.34 2307.69,-769.6 2298.43,-764.44 2297.24,-771.34"/>
    </g>
    <!-- Y -->
    <g id="node25" class="node">
      <title>Y</title>
      <ellipse fill="#b2dfee" stroke="#b2dfee" cx="2334" cy="-680" rx="27" ry="18"/>
      <text text-anchor="middle" x="2334" y="-676.3" font-family="Helvetica,Arial,sans-serif" font-size="14.00">Y</text>
    </g>
    <!-- L&#45;&gt;Y -->
    <g id="edge24" class="edge">
      <title>L-&gt;Y</title>
      <path fill="none" stroke="black" d="M1818.09,-680C1906.46,-680 2194.62,-680 2296.73,-680"/>
      <polygon fill="black" stroke="black" points="2296.85,-683.5 2306.85,-680 2296.85,-676.5 2296.85,-683.5"/>
    </g>
    <!-- Z -->
    <g id="node26" class="node">
      <title>Z</title>
      <ellipse fill="#b2dfee" stroke="#b2dfee" cx="2334" cy="-599" rx="27" ry="18"/>
      <text text-anchor="middle" x="2334" y="-595.3" font-family="Helvetica,Arial,sans-serif" font-size="14.00">Z</text>
    </g>
    <!-- M&#45;&gt;Z -->
    <g id="edge25" class="edge">
      <title>M-&gt;Z</title>
      <path fill="none" stroke="black" d="M1818.09,-599C1906.46,-599 2194.62,-599 2296.73,-599"/>
      <polygon fill="black" stroke="black" points="2296.85,-602.5 2306.85,-599 2296.85,-595.5 2296.85,-602.5"/>
    </g>
    <!-- AA -->
    <g id="node27" class="node">
      <title>AA</title>
      <ellipse fill="#b2dfee" stroke="#b2dfee" cx="2334" cy="-504" rx="27" ry="18"/>
      <text text-anchor="middle" x="2334" y="-500.3" font-family="Helvetica,Arial,sans-serif" font-size="14.00">AA</text>
    </g>
    <!-- M&#45;&gt;AA -->
    <g id="edge26" class="edge">
      <title>M-&gt;AA</title>
      <path fill="none" stroke="black" d="M1817.37,-594.55C1905.13,-579.13 2196.06,-528.05 2297.63,-510.21"/>
      <polygon fill="black" stroke="black" points="2298.44,-513.62 2307.69,-508.44 2297.23,-506.73 2298.44,-513.62"/>
    </g>
    <!-- AB -->
    <g id="node28" class="node">
      <title>AB</title>
      <ellipse fill="#b2dfee" stroke="#b2dfee" cx="2334" cy="-342" rx="27" ry="18"/>
      <text text-anchor="middle" x="2334" y="-338.3" font-family="Helvetica,Arial,sans-serif" font-size="14.00">AB</text>
    </g>
    <!-- N&#45;&gt;AB -->
    <g id="edge27" class="edge">
      <title>N-&gt;AB</title>
      <path fill="none" stroke="black" d="M1818.09,-316.3C1906.46,-320.71 2194.62,-335.09 2296.73,-340.19"/>
      <polygon fill="black" stroke="black" points="2296.69,-343.69 2306.85,-340.7 2297.04,-336.7 2296.69,-343.69"/>
    </g>
    <!-- AC -->
    <g id="node29" class="node">
      <title>AC</title>
      <ellipse fill="#b2dfee" stroke="#b2dfee" cx="2334" cy="-288" rx="27" ry="18"/>
      <text text-anchor="middle" x="2334" y="-284.3" font-family="Helvetica,Arial,sans-serif" font-size="14.00">AC</text>
    </g>
    <!-- N&#45;&gt;AC -->
    <g id="edge28" class="edge">
      <title>N-&gt;AC</title>
      <path fill="none" stroke="black" d="M1818.09,-313.7C1906.46,-309.29 2194.62,-294.91 2296.73,-289.81"/>
      <polygon fill="black" stroke="black" points="2297.04,-293.3 2306.85,-289.3 2296.69,-286.31 2297.04,-293.3"/>
    </g>
    <!-- AD -->
    <g id="node30" class="node">
      <title>AD</title>
      <ellipse fill="#b2dfee" stroke="#b2dfee" cx="2334" cy="-153" rx="27" ry="18"/>
      <text text-anchor="middle" x="2334" y="-149.3" font-family="Helvetica,Arial,sans-serif" font-size="14.00">AD</text>
    </g>
    <!-- O&#45;&gt;AD -->
    <g id="edge29" class="edge">
      <title>O-&gt;AD</title>
      <path fill="none" stroke="black" d="M1818.09,-153C1906.46,-153 2194.62,-153 2296.73,-153"/>
      <polygon fill="black" stroke="black" points="2296.85,-156.5 2306.85,-153 2296.85,-149.5 2296.85,-156.5"/>
    </g>
    <!-- AE -->
    <g id="node31" class="node">
      <title>AE</title>
      <ellipse fill="#b2dfee" stroke="#b2dfee" cx="2334" cy="-72" rx="27" ry="18"/>
      <text text-anchor="middle" x="2334" y="-68.3" font-family="Helvetica,Arial,sans-serif" font-size="14.00">AE</text>
    </g>
    <!-- O&#45;&gt;AE -->
    <g id="edge30" class="edge">
      <title>O-&gt;AE</title>
      <path fill="none" stroke="black" d="M1817.73,-149.15C1905.85,-135.95 2195.67,-92.56 2297.36,-77.34"/>
      <polygon fill="black" stroke="black" points="2298.06,-80.77 2307.43,-75.83 2297.02,-73.85 2298.06,-80.77"/>
    </g>
    <!-- AF -->
    <g id="node32" class="node">
      <title>AF</title>
      <ellipse fill="#b2dfee" stroke="#b2dfee" cx="2877" cy="-1692" rx="27" ry="18"/>
      <text text-anchor="middle" x="2877" y="-1688.3" font-family="Helvetica,Arial,sans-serif" font-size="14.00">AF</text>
    </g>
    <!-- P&#45;&gt;AF -->
    <g id="edge31" class="edge">
      <title>P-&gt;AF</title>
      <path fill="none" stroke="black" d="M2360.73,-1640.57C2448.75,-1649.35 2738,-1678.23 2840,-1688.41"/>
      <polygon fill="black" stroke="black" points="2839.81,-1691.91 2850.11,-1689.42 2840.51,-1684.94 2839.81,-1691.91"/>
    </g>
    <!-- AG -->
    <g id="node33" class="node">
      <title>AG</title>
      <ellipse fill="#b2dfee" stroke="#b2dfee" cx="2877" cy="-1638" rx="27" ry="18"/>
      <text text-anchor="middle" x="2877" y="-1634.3" font-family="Helvetica,Arial,sans-serif" font-size="14.00">AG</text>
    </g>
    <!-- P&#45;&gt;AG -->
    <g id="edge32" class="edge">
      <title>P-&gt;AG</title>
      <path fill="none" stroke="black" d="M2361.09,-1638C2449.46,-1638 2737.62,-1638 2839.73,-1638"/>
      <polygon fill="black" stroke="black" points="2839.85,-1641.5 2849.85,-1638 2839.85,-1634.5 2839.85,-1641.5"/>
    </g>
    <!-- AH -->
    <g id="node34" class="node">
      <title>AH</title>
      <ellipse fill="#b2dfee" stroke="#b2dfee" cx="2877" cy="-1584" rx="27" ry="18"/>
      <text text-anchor="middle" x="2877" y="-1580.3" font-family="Helvetica,Arial,sans-serif" font-size="14.00">AH</text>
    </g>
    <!-- Q&#45;&gt;AH -->
    <g id="edge33" class="edge">
      <title>Q-&gt;AH</title>
      <path fill="none" stroke="black" d="M2361.09,-1558.3C2449.46,-1562.71 2737.62,-1577.09 2839.73,-1582.19"/>
      <polygon fill="black" stroke="black" points="2839.69,-1585.69 2849.85,-1582.7 2840.04,-1578.7 2839.69,-1585.69"/>
    </g>
    <!-- AI -->
    <g id="node35" class="node">
      <title>AI</title>
      <ellipse fill="#b2dfee" stroke="#b2dfee" cx="2877" cy="-1530" rx="27" ry="18"/>
      <text text-anchor="middle" x="2877" y="-1526.3" font-family="Helvetica,Arial,sans-serif" font-size="14.00">AI</text>
    </g>
    <!-- Q&#45;&gt;AI -->
    <g id="edge34" class="edge">
      <title>Q-&gt;AI</title>
      <path fill="none" stroke="black" d="M2361.09,-1555.7C2449.46,-1551.29 2737.62,-1536.91 2839.73,-1531.81"/>
      <polygon fill="black" stroke="black" points="2840.04,-1535.3 2849.85,-1531.3 2839.69,-1528.31 2840.04,-1535.3"/>
    </g>
    <!-- AJ -->
    <g id="node36" class="node">
      <title>AJ</title>
      <ellipse fill="#b2dfee" stroke="#b2dfee" cx="2877" cy="-1476" rx="27" ry="18"/>
      <text text-anchor="middle" x="2877" y="-1472.3" font-family="Helvetica,Arial,sans-serif" font-size="14.00">AJ</text>
    </g>
    <!-- R&#45;&gt;AJ -->
    <g id="edge35" class="edge">
      <title>R-&gt;AJ</title>
      <path fill="none" stroke="black" d="M2360.73,-1424.57C2448.75,-1433.35 2738,-1462.23 2840,-1472.41"/>
      <polygon fill="black" stroke="black" points="2839.81,-1475.91 2850.11,-1473.42 2840.51,-1468.94 2839.81,-1475.91"/>
    </g>
    <!-- AK -->
    <g id="node37" class="node">
      <title>AK</title>
      <ellipse fill="#b2dfee" stroke="#b2dfee" cx="2877" cy="-1422" rx="27" ry="18"/>
      <text text-anchor="middle" x="2877" y="-1418.3" font-family="Helvetica,Arial,sans-serif" font-size="14.00">AK</text>
    </g>
    <!-- R&#45;&gt;AK -->
    <g id="edge36" class="edge">
      <title>R-&gt;AK</title>
      <path fill="none" stroke="black" d="M2361.09,-1422C2449.46,-1422 2737.62,-1422 2839.73,-1422"/>
      <polygon fill="black" stroke="black" points="2839.85,-1425.5 2849.85,-1422 2839.85,-1418.5 2839.85,-1425.5"/>
    </g>
    <!-- AL -->
    <g id="node38" class="node">
      <title>AL</title>
      <ellipse fill="#b2dfee" stroke="#b2dfee" cx="2877" cy="-1368" rx="27" ry="18"/>
      <text text-anchor="middle" x="2877" y="-1364.3" font-family="Helvetica,Arial,sans-serif" font-size="14.00">AL</text>
    </g>
    <!-- S&#45;&gt;AL -->
    <g id="edge37" class="edge">
      <title>S-&gt;AL</title>
      <path fill="none" stroke="black" d="M2361.09,-1368C2449.46,-1368 2737.62,-1368 2839.73,-1368"/>
      <polygon fill="black" stroke="black" points="2839.85,-1371.5 2849.85,-1368 2839.85,-1364.5 2839.85,-1371.5"/>
    </g>
    <!-- AM -->
    <g id="node39" class="node">
      <title>AM</title>
      <ellipse fill="#b2dfee" stroke="#b2dfee" cx="2877" cy="-1314" rx="27" ry="18"/>
      <text text-anchor="middle" x="2877" y="-1310.3" font-family="Helvetica,Arial,sans-serif" font-size="14.00">AM</text>
    </g>
    <!-- S&#45;&gt;AM -->
    <g id="edge38" class="edge">
      <title>S-&gt;AM</title>
      <path fill="none" stroke="black" d="M2360.73,-1365.43C2448.75,-1356.65 2738,-1327.77 2840,-1317.59"/>
      <polygon fill="black" stroke="black" points="2840.51,-1321.06 2850.11,-1316.58 2839.81,-1314.09 2840.51,-1321.06"/>
    </g>
    <!-- AN -->
    <g id="node40" class="node">
      <title>AN</title>
      <ellipse fill="#b2dfee" stroke="#b2dfee" cx="2877" cy="-1260" rx="27" ry="18"/>
      <text text-anchor="middle" x="2877" y="-1256.3" font-family="Helvetica,Arial,sans-serif" font-size="14.00">AN</text>
    </g>
    <!-- T&#45;&gt;AN -->
    <g id="edge39" class="edge">
      <title>T-&gt;AN</title>
      <path fill="none" stroke="black" d="M2360.73,-1208.57C2448.75,-1217.35 2738,-1246.23 2840,-1256.41"/>
      <polygon fill="black" stroke="black" points="2839.81,-1259.91 2850.11,-1257.42 2840.51,-1252.94 2839.81,-1259.91"/>
    </g>
    <!-- AO -->
    <g id="node41" class="node">
      <title>AO</title>
      <ellipse fill="#b2dfee" stroke="#b2dfee" cx="2877" cy="-1206" rx="27" ry="18"/>
      <text text-anchor="middle" x="2877" y="-1202.3" font-family="Helvetica,Arial,sans-serif" font-size="14.00">AO</text>
    </g>
    <!-- T&#45;&gt;AO -->
    <g id="edge40" class="edge">
      <title>T-&gt;AO</title>
      <path fill="none" stroke="black" d="M2361.09,-1206C2449.46,-1206 2737.62,-1206 2839.73,-1206"/>
      <polygon fill="black" stroke="black" points="2839.85,-1209.5 2849.85,-1206 2839.85,-1202.5 2839.85,-1209.5"/>
    </g>
    <!-- AP -->
    <g id="node42" class="node">
      <title>AP</title>
      <ellipse fill="#b2dfee" stroke="#b2dfee" cx="2877" cy="-1152" rx="27" ry="18"/>
      <text text-anchor="middle" x="2877" y="-1148.3" font-family="Helvetica,Arial,sans-serif" font-size="14.00">AP</text>
    </g>
    <!-- U&#45;&gt;AP -->
    <g id="edge41" class="edge">
      <title>U-&gt;AP</title>
      <path fill="none" stroke="black" d="M2361.09,-1126.3C2449.46,-1130.71 2737.62,-1145.09 2839.73,-1150.19"/>
      <polygon fill="black" stroke="black" points="2839.69,-1153.69 2849.85,-1150.7 2840.04,-1146.7 2839.69,-1153.69"/>
    </g>
    <!-- AQ -->
    <g id="node43" class="node">
      <title>AQ</title>
      <ellipse fill="#b2dfee" stroke="#b2dfee" cx="2877" cy="-1098" rx="27" ry="18"/>
      <text text-anchor="middle" x="2877" y="-1094.3" font-family="Helvetica,Arial,sans-serif" font-size="14.00">AQ</text>
    </g>
    <!-- U&#45;&gt;AQ -->
    <g id="edge42" class="edge">
      <title>U-&gt;AQ</title>
      <path fill="none" stroke="black" d="M2361.09,-1123.7C2449.46,-1119.29 2737.62,-1104.91 2839.73,-1099.81"/>
      <polygon fill="black" stroke="black" points="2840.04,-1103.3 2849.85,-1099.3 2839.69,-1096.31 2840.04,-1103.3"/>
    </g>
    <!-- AR -->
    <g id="node44" class="node">
      <title>AR</title>
      <ellipse fill="#b2dfee" stroke="#b2dfee" cx="2877" cy="-1044" rx="27" ry="18"/>
      <text text-anchor="middle" x="2877" y="-1040.3" font-family="Helvetica,Arial,sans-serif" font-size="14.00">AR</text>
    </g>
    <!-- V&#45;&gt;AR -->
    <g id="edge43" class="edge">
      <title>V-&gt;AR</title>
      <path fill="none" stroke="black" d="M2361.09,-1018.3C2449.46,-1022.71 2737.62,-1037.09 2839.73,-1042.19"/>
      <polygon fill="black" stroke="black" points="2839.69,-1045.69 2849.85,-1042.7 2840.04,-1038.7 2839.69,-1045.69"/>
    </g>
    <!-- AS -->
    <g id="node45" class="node">
      <title>AS</title>
      <ellipse fill="red" stroke="#b2dfee" cx="2877" cy="-990" rx="27" ry="18"/>
      <text text-anchor="middle" x="2877" y="-986.3" font-family="Helvetica,Arial,sans-serif" font-size="14.00">AS</text>
    </g>
    <!-- V&#45;&gt;AS -->
    <g id="edge44" class="edge">
      <title>V-&gt;AS</title>
      <path fill="none" stroke="black" d="M2361.09,-1015.7C2449.46,-1011.29 2737.62,-996.91 2839.73,-991.81"/>
      <polygon fill="black" stroke="black" points="2840.04,-995.3 2849.85,-991.3 2839.69,-988.31 2840.04,-995.3"/>
    </g>
    <!-- AT -->
    <g id="node46" class="node">
      <title>AT</title>
      <ellipse fill="#b2dfee" stroke="#b2dfee" cx="2877" cy="-936" rx="27" ry="18"/>
      <text text-anchor="middle" x="2877" y="-932.3" font-family="Helvetica,Arial,sans-serif" font-size="14.00">AT</text>
    </g>
    <!-- W&#45;&gt;AT -->
    <g id="edge45" class="edge">
      <title>W-&gt;AT</title>
      <path fill="none" stroke="black" d="M2361.09,-936C2449.46,-936 2737.62,-936 2839.73,-936"/>
      <polygon fill="black" stroke="black" points="2839.85,-939.5 2849.85,-936 2839.85,-932.5 2839.85,-939.5"/>
    </g>
    <!-- AU -->
    <g id="node47" class="node">
      <title>AU</title>
      <ellipse fill="#b2dfee" stroke="#b2dfee" cx="2877" cy="-882" rx="27" ry="18"/>
      <text text-anchor="middle" x="2877" y="-878.3" font-family="Helvetica,Arial,sans-serif" font-size="14.00">AU</text>
    </g>
    <!-- W&#45;&gt;AU -->
    <g id="edge46" class="edge">
      <title>W-&gt;AU</title>
      <path fill="none" stroke="black" d="M2360.73,-933.43C2448.75,-924.65 2738,-895.77 2840,-885.59"/>
      <polygon fill="black" stroke="black" points="2840.51,-889.06 2850.11,-884.58 2839.81,-882.09 2840.51,-889.06"/>
    </g>
    <!-- AV -->
    <g id="node48" class="node">
      <title>AV</title>
      <ellipse fill="#b2dfee" stroke="#b2dfee" cx="2877" cy="-828" rx="27" ry="18"/>
      <text text-anchor="middle" x="2877" y="-824.3" font-family="Helvetica,Arial,sans-serif" font-size="14.00">AV</text>
    </g>
    <!-- X&#45;&gt;AV -->
    <g id="edge47" class="edge">
      <title>X-&gt;AV</title>
      <path fill="none" stroke="black" d="M2360.73,-776.57C2448.75,-785.35 2738,-814.23 2840,-824.41"/>
      <polygon fill="black" stroke="black" points="2839.81,-827.91 2850.11,-825.42 2840.51,-820.94 2839.81,-827.91"/>
    </g>
    <!-- AW -->
    <g id="node49" class="node">
      <title>AW</title>
      <ellipse fill="#b2dfee" stroke="#b2dfee" cx="2877" cy="-774" rx="27" ry="18"/>
      <text text-anchor="middle" x="2877" y="-770.3" font-family="Helvetica,Arial,sans-serif" font-size="14.00">AW</text>
    </g>
    <!-- X&#45;&gt;AW -->
    <g id="edge48" class="edge">
      <title>X-&gt;AW</title>
      <path fill="none" stroke="black" d="M2361.09,-774C2449.46,-774 2737.62,-774 2839.73,-774"/>
      <polygon fill="black" stroke="black" points="2839.85,-777.5 2849.85,-774 2839.85,-770.5 2839.85,-777.5"/>
    </g>
    <!-- AX -->
    <g id="node50" class="node">
      <title>AX</title>
      <ellipse fill="#b2dfee" stroke="#b2dfee" cx="2877" cy="-720" rx="27" ry="18"/>
      <text text-anchor="middle" x="2877" y="-716.3" font-family="Helvetica,Arial,sans-serif" font-size="14.00">AX</text>
    </g>
    <!-- Y&#45;&gt;AX -->
    <g id="edge49" class="edge">
      <title>Y-&gt;AX</title>
      <path fill="none" stroke="black" d="M2361.09,-681.93C2449.46,-688.46 2737.62,-709.77 2839.73,-717.32"/>
      <polygon fill="black" stroke="black" points="2839.62,-720.82 2849.85,-718.07 2840.14,-713.84 2839.62,-720.82"/>
    </g>
    <!-- AY -->
    <g id="node51" class="node">
      <title>AY</title>
      <ellipse fill="#b2dfee" stroke="#b2dfee" cx="2877" cy="-666" rx="27" ry="18"/>
      <text text-anchor="middle" x="2877" y="-662.3" font-family="Helvetica,Arial,sans-serif" font-size="14.00">AY</text>
    </g>
    <!-- Y&#45;&gt;AY -->
    <g id="edge50" class="edge">
      <title>Y-&gt;AY</title>
      <path fill="none" stroke="black" d="M2361.09,-679.32C2449.46,-677.04 2737.62,-669.58 2839.73,-666.94"/>
      <polygon fill="black" stroke="black" points="2839.95,-670.43 2849.85,-666.68 2839.76,-663.44 2839.95,-670.43"/>
    </g>
    <!-- AZ -->
    <g id="node52" class="node">
      <title>AZ</title>
      <ellipse fill="#b2dfee" stroke="#b2dfee" cx="2877" cy="-612" rx="27" ry="18"/>
      <text text-anchor="middle" x="2877" y="-608.3" font-family="Helvetica,Arial,sans-serif" font-size="14.00">AZ</text>
    </g>
    <!-- Z&#45;&gt;AZ -->
    <g id="edge51" class="edge">
      <title>Z-&gt;AZ</title>
      <path fill="none" stroke="black" d="M2361.09,-599.63C2449.46,-601.75 2737.62,-608.67 2839.73,-611.13"/>
      <polygon fill="black" stroke="black" points="2839.77,-614.63 2849.85,-611.37 2839.94,-607.63 2839.77,-614.63"/>
    </g>
    <!-- BA -->
    <g id="node53" class="node">
      <title>BA</title>
      <ellipse fill="#b2dfee" stroke="#b2dfee" cx="2877" cy="-558" rx="27" ry="18"/>
      <text text-anchor="middle" x="2877" y="-554.3" font-family="Helvetica,Arial,sans-serif" font-size="14.00">BA</text>
    </g>
    <!-- Z&#45;&gt;BA -->
    <g id="edge52" class="edge">
      <title>Z-&gt;BA</title>
      <path fill="none" stroke="black" d="M2361.09,-597.02C2449.46,-590.33 2737.62,-568.49 2839.73,-560.75"/>
      <polygon fill="black" stroke="black" points="2840.15,-564.23 2849.85,-559.98 2839.62,-557.25 2840.15,-564.23"/>
    </g>
    <!-- BB -->
    <g id="node54" class="node">
      <title>BB</title>
      <ellipse fill="#b2dfee" stroke="#b2dfee" cx="2877" cy="-504" rx="27" ry="18"/>
      <text text-anchor="middle" x="2877" y="-500.3" font-family="Helvetica,Arial,sans-serif" font-size="14.00">BB</text>
    </g>
    <!-- AA&#45;&gt;BB -->
    <g id="edge53" class="edge">
      <title>AA-&gt;BB</title>
      <path fill="none" stroke="black" d="M2361.09,-504C2449.46,-504 2737.62,-504 2839.73,-504"/>
      <polygon fill="black" stroke="black" points="2839.85,-507.5 2849.85,-504 2839.85,-500.5 2839.85,-507.5"/>
    </g>
    <!-- BC -->
    <g id="node55" class="node">
      <title>BC</title>
      <ellipse fill="#b2dfee" stroke="#b2dfee" cx="2877" cy="-450" rx="27" ry="18"/>
      <text text-anchor="middle" x="2877" y="-446.3" font-family="Helvetica,Arial,sans-serif" font-size="14.00">BC</text>
    </g>
    <!-- AA&#45;&gt;BC -->
    <g id="edge54" class="edge">
      <title>AA-&gt;BC</title>
      <path fill="none" stroke="black" d="M2360.73,-501.43C2448.75,-492.65 2738,-463.77 2840,-453.59"/>
      <polygon fill="black" stroke="black" points="2840.51,-457.06 2850.11,-452.58 2839.81,-450.09 2840.51,-457.06"/>
    </g>
    <!-- BD -->
    <g id="node56" class="node">
      <title>BD</title>
      <ellipse fill="#b2dfee" stroke="#b2dfee" cx="2877" cy="-396" rx="27" ry="18"/>
      <text text-anchor="middle" x="2877" y="-392.3" font-family="Helvetica,Arial,sans-serif" font-size="14.00">BD</text>
    </g>
    <!-- AB&#45;&gt;BD -->
    <g id="edge55" class="edge">
      <title>AB-&gt;BD</title>
      <path fill="none" stroke="black" d="M2360.73,-344.57C2448.75,-353.35 2738,-382.23 2840,-392.41"/>
      <polygon fill="black" stroke="black" points="2839.81,-395.91 2850.11,-393.42 2840.51,-388.94 2839.81,-395.91"/>
    </g>
    <!-- BE -->
    <g id="node57" class="node">
      <title>BE</title>
      <ellipse fill="#b2dfee" stroke="#b2dfee" cx="2877" cy="-342" rx="27" ry="18"/>
      <text text-anchor="middle" x="2877" y="-338.3" font-family="Helvetica,Arial,sans-serif" font-size="14.00">BE</text>
    </g>
    <!-- AB&#45;&gt;BE -->
    <g id="edge56" class="edge">
      <title>AB-&gt;BE</title>
      <path fill="none" stroke="black" d="M2361.09,-342C2449.46,-342 2737.62,-342 2839.73,-342"/>
      <polygon fill="black" stroke="black" points="2839.85,-345.5 2849.85,-342 2839.85,-338.5 2839.85,-345.5"/>
    </g>
    <!-- BF -->
    <g id="node58" class="node">
      <title>BF</title>
      <ellipse fill="#b2dfee" stroke="#b2dfee" cx="2877" cy="-288" rx="27" ry="18"/>
      <text text-anchor="middle" x="2877" y="-284.3" font-family="Helvetica,Arial,sans-serif" font-size="14.00">BF</text>
    </g>
    <!-- AC&#45;&gt;BF -->
    <g id="edge57" class="edge">
      <title>AC-&gt;BF</title>
      <path fill="none" stroke="black" d="M2361.09,-288C2449.46,-288 2737.62,-288 2839.73,-288"/>
      <polygon fill="black" stroke="black" points="2839.85,-291.5 2849.85,-288 2839.85,-284.5 2839.85,-291.5"/>
    </g>
    <!-- BG -->
    <g id="node59" class="node">
      <title>BG</title>
      <ellipse fill="#b2dfee" stroke="#b2dfee" cx="2877" cy="-234" rx="27" ry="18"/>
      <text text-anchor="middle" x="2877" y="-230.3" font-family="Helvetica,Arial,sans-serif" font-size="14.00">BG</text>
    </g>
    <!-- AC&#45;&gt;BG -->
    <g id="edge58" class="edge">
      <title>AC-&gt;BG</title>
      <path fill="none" stroke="black" d="M2360.73,-285.43C2448.75,-276.65 2738,-247.77 2840,-237.59"/>
      <polygon fill="black" stroke="black" points="2840.51,-241.06 2850.11,-236.58 2839.81,-234.09 2840.51,-241.06"/>
    </g>
    <!-- BH -->
    <g id="node60" class="node">
      <title>BH</title>
      <ellipse fill="#b2dfee" stroke="#b2dfee" cx="2877" cy="-180" rx="27" ry="18"/>
      <text text-anchor="middle" x="2877" y="-176.3" font-family="Helvetica,Arial,sans-serif" font-size="14.00">BH</text>
    </g>
    <!-- AD&#45;&gt;BH -->
    <g id="edge59" class="edge">
      <title>AD-&gt;BH</title>
      <path fill="none" stroke="black" d="M2361.09,-154.3C2449.46,-158.71 2737.62,-173.09 2839.73,-178.19"/>
      <polygon fill="black" stroke="black" points="2839.69,-181.69 2849.85,-178.7 2840.04,-174.7 2839.69,-181.69"/>
    </g>
    <!-- BI -->
    <g id="node61" class="node">
      <title>BI</title>
      <ellipse fill="#b2dfee" stroke="#b2dfee" cx="2877" cy="-126" rx="27" ry="18"/>
      <text text-anchor="middle" x="2877" y="-122.3" font-family="Helvetica,Arial,sans-serif" font-size="14.00">BI</text>
    </g>
    <!-- AD&#45;&gt;BI -->
    <g id="edge60" class="edge">
      <title>AD-&gt;BI</title>
      <path fill="none" stroke="black" d="M2361.09,-151.7C2449.46,-147.29 2737.62,-132.91 2839.73,-127.81"/>
      <polygon fill="black" stroke="black" points="2840.04,-131.3 2849.85,-127.3 2839.69,-124.31 2840.04,-131.3"/>
    </g>
    <!-- BJ -->
    <g id="node62" class="node">
      <title>BJ</title>
      <ellipse fill="#b2dfee" stroke="#b2dfee" cx="2877" cy="-72" rx="27" ry="18"/>
      <text text-anchor="middle" x="2877" y="-68.3" font-family="Helvetica,Arial,sans-serif" font-size="14.00">BJ</text>
    </g>
    <!-- AE&#45;&gt;BJ -->
    <g id="edge61" class="edge">
      <title>AE-&gt;BJ</title>
      <path fill="none" stroke="black" d="M2361.09,-72C2449.46,-72 2737.62,-72 2839.73,-72"/>
      <polygon fill="black" stroke="black" points="2839.85,-75.5 2849.85,-72 2839.85,-68.5 2839.85,-75.5"/>
    </g>
    <!-- BK -->
    <g id="node63" class="node">
      <title>BK</title>
      <ellipse fill="#b2dfee" stroke="#b2dfee" cx="2877" cy="-18" rx="27" ry="18"/>
      <text text-anchor="middle" x="2877" y="-14.3" font-family="Helvetica,Arial,sans-serif" font-size="14.00">BK</text>
    </g>
    <!-- AE&#45;&gt;BK -->
    <g id="edge62" class="edge">
      <title>AE-&gt;BK</title>
      <path fill="none" stroke="black" d="M2360.73,-69.43C2448.75,-60.65 2738,-31.77 2840,-21.59"/>
      <polygon fill="black" stroke="black" points="2840.51,-25.06 2850.11,-20.58 2839.81,-18.09 2840.51,-25.06"/>
    </g>
  </g>
</svg>
