<?xml version="1.0" encoding="UTF-8" standalone="no"?>
<!DOCTYPE svg PUBLIC "-//W3C//DTD SVG 1.1//EN" "http://www.w3.org/Graphics/SVG/1.1/DTD/svg11.dtd">
<!-- Generated by graphviz version 2.43.0 (0)
 -->
<!-- Title: unix Pages: 1 -->
<svg xmlns="http://www.w3.org/2000/svg" xmlns:xlink="http://www.w3.org/1999/xlink" width="512pt" height="292pt" viewBox="0.00 0.00 512.00 291.50">
  <g id="graph0" class="graph" transform="scale(1 1) rotate(0) translate(4 287.5)">
    <title>unix</title>
    <polygon fill="white" stroke="transparent" points="-4,4 -4,-287.5 508,-287.5 508,4 -4,4"/>
    <!-- A -->
    <g id="node1" class="node">
      <title>A</title>
      <ellipse fill="red" stroke="#b2dfee" cx="27" cy="-141.59" rx="27" ry="18"/>
      <text text-anchor="middle" x="27" y="-137.89" font-family="Helvetica,Arial,sans-serif" font-size="14.00">A</text>
    </g>
    <!-- B -->
    <g id="node2" class="node">
      <title>B</title>
      <ellipse fill="red" stroke="#b2dfee" cx="117" cy="-194.59" rx="27" ry="18"/>
      <text text-anchor="middle" x="117" y="-190.89" font-family="Helvetica,Arial,sans-serif" font-size="14.00">B</text>
    </g>
    <!-- A&#45;&gt;B -->
    <g id="edge1" class="edge">
      <title>A-&gt;B</title>
      <path fill="none" stroke="black" d="M47.53,-153.36C59.3,-160.44 74.49,-169.59 87.57,-177.47"/>
      <polygon fill="black" stroke="black" points="85.85,-180.52 96.22,-182.68 89.46,-174.52 85.85,-180.52"/>
    </g>
    <!-- C -->
    <g id="node3" class="node">
      <title>C</title>
      <ellipse fill="#b2dfee" stroke="#b2dfee" cx="117" cy="-88.59" rx="27" ry="18"/>
      <text text-anchor="middle" x="117" y="-84.89" font-family="Helvetica,Arial,sans-serif" font-size="14.00">C</text>
    </g>
    <!-- A&#45;&gt;C -->
    <g id="edge2" class="edge">
      <title>A-&gt;C</title>
      <path fill="none" stroke="black" d="M47.53,-129.83C59.3,-122.74 74.49,-113.6 87.57,-105.72"/>
      <polygon fill="black" stroke="black" points="89.46,-108.66 96.22,-100.51 85.85,-102.67 89.46,-108.66"/>
    </g>
    <!-- D -->
    <g id="node4" class="node">
      <title>D</title>
      <ellipse fill="#b2dfee" stroke="#b2dfee" cx="207" cy="-247.59" rx="27" ry="18"/>
      <text text-anchor="middle" x="207" y="-243.89" font-family="Helvetica,Arial,sans-serif" font-size="14.00">D</text>
    </g>
    <!-- B&#45;&gt;D -->
    <g id="edge3" class="edge">
      <title>B-&gt;D</title>
      <path fill="none" stroke="black" d="M137.53,-206.36C149.3,-213.44 164.49,-222.59 177.57,-230.47"/>
      <polygon fill="black" stroke="black" points="175.85,-233.52 186.22,-235.68 179.46,-227.52 175.85,-233.52"/>
    </g>
    <!-- E -->
    <g id="node5" class="node">
      <title>E</title>
      <ellipse fill="red" stroke="#b2dfee" cx="207" cy="-141.59" rx="27" ry="18"/>
      <text text-anchor="middle" x="207" y="-137.89" font-family="Helvetica,Arial,sans-serif" font-size="14.00">E</text>
    </g>
    <!-- B&#45;&gt;E -->
    <g id="edge4" class="edge">
      <title>B-&gt;E</title>
      <path fill="none" stroke="black" d="M137.53,-182.83C149.3,-175.74 164.49,-166.6 177.57,-158.72"/>
      <polygon fill="black" stroke="black" points="179.46,-161.66 186.22,-153.51 175.85,-155.67 179.46,-161.66"/>
    </g>
    <!-- J -->
    <g id="node6" class="node">
      <title>J</title>
      <ellipse fill="#b2dfee" stroke="#b2dfee" cx="297" cy="-194.59" rx="27" ry="18"/>
      <text text-anchor="middle" x="297" y="-190.89" font-family="Helvetica,Arial,sans-serif" font-size="14.00">J</text>
    </g>
    <!-- E&#45;&gt;J -->
    <g id="edge5" class="edge">
      <title>E-&gt;J</title>
      <path fill="none" stroke="black" d="M227.53,-153.36C239.3,-160.44 254.49,-169.59 267.57,-177.47"/>
      <polygon fill="black" stroke="black" points="265.85,-180.52 276.22,-182.68 269.46,-174.52 265.85,-180.52"/>
    </g>
    <!-- K -->
    <g id="node7" class="node">
      <title>K</title>
      <ellipse fill="red" stroke="#b2dfee" cx="297" cy="-88.59" rx="27" ry="18"/>
      <text text-anchor="middle" x="297" y="-84.89" font-family="Helvetica,Arial,sans-serif" font-size="14.00">K</text>
    </g>
    <!-- E&#45;&gt;K -->
    <g id="edge6" class="edge">
      <title>E-&gt;K</title>
      <path fill="none" stroke="black" d="M227.53,-129.83C239.3,-122.74 254.49,-113.6 267.57,-105.72"/>
      <polygon fill="black" stroke="black" points="269.46,-108.66 276.22,-100.51 265.85,-102.67 269.46,-108.66"/>
    </g>
    <!-- V -->
    <g id="node8" class="node">
      <title>V</title>
      <ellipse fill="red" stroke="#b2dfee" cx="387" cy="-141.59" rx="27" ry="18"/>
      <text text-anchor="middle" x="387" y="-137.89" font-family="Helvetica,Arial,sans-serif" font-size="14.00">V</text>
    </g>
    <!-- K&#45;&gt;V -->
    <g id="edge7" class="edge">
      <title>K-&gt;V</title>
      <path fill="none" stroke="black" d="M317.53,-100.36C329.3,-107.44 344.49,-116.59 357.57,-124.47"/>
      <polygon fill="black" stroke="black" points="355.85,-127.52 366.22,-129.68 359.46,-121.52 355.85,-127.52"/>
    </g>
    <!-- W -->
    <g id="node9" class="node">
      <title>W</title>
      <ellipse fill="#b2dfee" stroke="#b2dfee" cx="387" cy="-35.59" rx="27" ry="18"/>
      <text text-anchor="middle" x="387" y="-31.89" font-family="Helvetica,Arial,sans-serif" font-size="14.00">W</text>
    </g>
    <!-- K&#45;&gt;W -->
    <g id="edge8" class="edge">
      <title>K-&gt;W</title>
      <path fill="none" stroke="black" d="M317.53,-76.83C329.3,-69.74 344.49,-60.6 357.57,-52.72"/>
      <polygon fill="black" stroke="black" points="359.46,-55.66 366.22,-47.51 355.85,-49.67 359.46,-55.66"/>
    </g>
    <!-- AR -->
    <g id="node10" class="node">
      <title>AR</title>
      <ellipse fill="#b2dfee" stroke="#b2dfee" cx="477" cy="-194.59" rx="27" ry="18"/>
      <text text-anchor="middle" x="477" y="-190.89" font-family="Helvetica,Arial,sans-serif" font-size="14.00">AR</text>
    </g>
    <!-- V&#45;&gt;AR -->
    <g id="edge9" class="edge">
      <title>V-&gt;AR</title>
      <path fill="none" stroke="black" d="M407.53,-153.36C419.3,-160.44 434.49,-169.59 447.57,-177.47"/>
      <polygon fill="black" stroke="black" points="445.85,-180.52 456.22,-182.68 449.46,-174.52 445.85,-180.52"/>
    </g>
    <!-- AS -->
    <g id="node11" class="node">
      <title>AS</title>
      <ellipse fill="red" stroke="#b2dfee" cx="477" cy="-88.59" rx="27" ry="18"/>
      <text text-anchor="middle" x="477" y="-84.89" font-family="Helvetica,Arial,sans-serif" font-size="14.00">AS</text>
    </g>
    <!-- V&#45;&gt;AS -->
    <g id="edge10" class="edge">
      <title>V-&gt;AS</title>
      <path fill="none" stroke="black" d="M407.53,-129.83C419.3,-122.74 434.49,-113.6 447.57,-105.72"/>
      <polygon fill="black" stroke="black" points="449.46,-108.66 456.22,-100.51 445.85,-102.67 449.46,-108.66"/>
    </g>
  </g>
</svg>
